<svg xmlns="http://www.w3.org/2000/svg" width="480" height="400" viewBox="0 0 480 400" aria-hidden="true">
  <g fill="#fff" opacity=".78">
    <circle cx="18" cy="39" r="1.15"/><circle cx="73" cy="93" r=".8"/>
    <circle cx="131" cy="25" r="1.1"/><circle cx="217" cy="71" r=".9"/>
    <circle cx="286" cy="28" r="1.15"/><circle cx="357" cy="88" r=".85"/>
    <circle cx="447" cy="43" r="1.25"/><circle cx="35" cy="171" r=".75"/>
    <circle cx="104" cy="146" r="1.25"/><circle cx="177" cy="119" r=".7"/>
    <circle cx="261" cy="163" r="1"/><circle cx="335" cy="130" r="1.3"/>
    <circle cx="420" cy="185" r=".85"/><circle cx="62" cy="256" r="1.1"/>
    <circle cx="149" cy="219" r=".9"/><circle cx="224" cy="277" r="1.2"/>
    <circle cx="308" cy="245" r=".8"/><circle cx="383" cy="278" r="1.15"/>
    <circle cx="453" cy="235" r=".7"/><circle cx="24" cy="348" r="1.05"/>
    <circle cx="116" cy="371" r=".85"/><circle cx="195" cy="331" r="1.25"/>
    <circle cx="275" cy="372" r=".75"/><circle cx="369" cy="345" r="1.1"/>
    <circle cx="449" cy="379" r="1"/>
  </g>
  <g fill="#F5A380" opacity=".6">
    <circle cx="94" cy="310" r="1.25"/><circle cx="400" cy="19" r="1.15"/>
    <circle cx="243" cy="205" r=".85"/><circle cx="33" cy="109" r=".75"/>
  </g>
  <g fill="none" stroke="#fff" stroke-linecap="round" opacity=".7">
    <path d="M183 42v9m-4.5-4.5h9" stroke-width="1"/>
    <path d="M398 132v8m-4-4h8" stroke-width=".9"/>
    <path d="M324 318v10m-5-5h10" stroke-width=".9"/>
  </g>
</svg>
